<svg xmlns="http://www.w3.org/2000/svg" xmlns:xlink="http://www.w3.org/1999/xlink" style="margin:auto;background:transparent;display:block;" width="200px" height="200px" viewBox="0 0 100 100" preserveAspectRatio="xMidYMid">
  <g transform="rotate(0 50 50)">
    <rect x="47" y="24" rx="3" ry="6" width="6" height="12" fill="#003366">
      <animate attributeName="opacity" values="1;0" keyTimes="0;1" dur="3.3333333333333335s" begin="-3.055555555555556s" repeatCount="indefinite"></animate>
    </rect>
  </g><g transform="rotate(30 50 50)">
    <rect x="47" y="24" rx="3" ry="6" width="6" height="12" fill="#003366">
      <animate attributeName="opacity" values="1;0" keyTimes="0;1" dur="3.3333333333333335s" begin="-2.777777777777778s" repeatCount="indefinite"></animate>
    </rect>
  </g><g transform="rotate(60 50 50)">
    <rect x="47" y="24" rx="3" ry="6" width="6" height="12" fill="#003366">
      <animate attributeName="opacity" values="1;0" keyTimes="0;1" dur="3.3333333333333335s" begin="-2.5000000000000004s" repeatCount="indefinite"></animate>
    </rect>
  </g><g transform="rotate(90 50 50)">
    <rect x="47" y="24" rx="3" ry="6" width="6" height="12" fill="#003366">
      <animate attributeName="opacity" values="1;0" keyTimes="0;1" dur="3.3333333333333335s" begin="-2.2222222222222223s" repeatCount="indefinite"></animate>
    </rect>
  </g><g transform="rotate(120 50 50)">
    <rect x="47" y="24" rx="3" ry="6" width="6" height="12" fill="#003366">
      <animate attributeName="opacity" values="1;0" keyTimes="0;1" dur="3.3333333333333335s" begin="-1.9444444444444446s" repeatCount="indefinite"></animate>
    </rect>
  </g><g transform="rotate(150 50 50)">
    <rect x="47" y="24" rx="3" ry="6" width="6" height="12" fill="#003366">
      <animate attributeName="opacity" values="1;0" keyTimes="0;1" dur="3.3333333333333335s" begin="-1.6666666666666667s" repeatCount="indefinite"></animate>
    </rect>
  </g><g transform="rotate(180 50 50)">
    <rect x="47" y="24" rx="3" ry="6" width="6" height="12" fill="#003366">
      <animate attributeName="opacity" values="1;0" keyTimes="0;1" dur="3.3333333333333335s" begin="-1.388888888888889s" repeatCount="indefinite"></animate>
    </rect>
  </g><g transform="rotate(210 50 50)">
    <rect x="47" y="24" rx="3" ry="6" width="6" height="12" fill="#003366">
      <animate attributeName="opacity" values="1;0" keyTimes="0;1" dur="3.3333333333333335s" begin="-1.1111111111111112s" repeatCount="indefinite"></animate>
    </rect>
  </g><g transform="rotate(240 50 50)">
    <rect x="47" y="24" rx="3" ry="6" width="6" height="12" fill="#003366">
      <animate attributeName="opacity" values="1;0" keyTimes="0;1" dur="3.3333333333333335s" begin="-0.8333333333333334s" repeatCount="indefinite"></animate>
    </rect>
  </g><g transform="rotate(270 50 50)">
    <rect x="47" y="24" rx="3" ry="6" width="6" height="12" fill="#003366">
      <animate attributeName="opacity" values="1;0" keyTimes="0;1" dur="3.3333333333333335s" begin="-0.5555555555555556s" repeatCount="indefinite"></animate>
    </rect>
  </g><g transform="rotate(300 50 50)">
    <rect x="47" y="24" rx="3" ry="6" width="6" height="12" fill="#003366">
      <animate attributeName="opacity" values="1;0" keyTimes="0;1" dur="3.3333333333333335s" begin="-0.2777777777777778s" repeatCount="indefinite"></animate>
    </rect>
  </g><g transform="rotate(330 50 50)">
    <rect x="47" y="24" rx="3" ry="6" width="6" height="12" fill="#003366">
      <animate attributeName="opacity" values="1;0" keyTimes="0;1" dur="3.3333333333333335s" begin="0s" repeatCount="indefinite"></animate>
    </rect>
  </g>
</svg>